<?xml version="1.0" encoding="UTF-8"?>
<svg xmlns="http://www.w3.org/2000/svg" xmlns:xlink="http://www.w3.org/1999/xlink" width="87pt" height="24pt" viewBox="0 0 87 24" version="1.1">
<g id="surface123">
<path style=" stroke:none;fill-rule:nonzero;fill:rgb(0%,0%,0%);fill-opacity:1;" d="M 2.359375 0 L 5.304688 0 L 5.304688 8.894531 L 16.492188 8.894531 L 16.492188 0 L 19.4375 0 L 19.4375 21.519531 L 16.492188 21.519531 L 16.492188 11.457031 L 5.304688 11.457031 L 5.304688 21.519531 L 2.359375 21.519531 Z M 24.460938 1.449219 L 27.125 1.449219 L 27.125 5.832031 L 29.632812 5.832031 L 29.632812 7.984375 L 27.125 7.984375 L 27.125 18.222656 C 27.125 18.769531 27.3125 19.136719 27.683594 19.324219 C 27.890625 19.429688 28.230469 19.484375 28.710938 19.484375 C 28.835938 19.484375 28.972656 19.480469 29.117188 19.476562 C 29.265625 19.472656 29.4375 19.457031 29.632812 19.441406 L 29.632812 21.519531 C 29.328125 21.605469 29.015625 21.671875 28.6875 21.710938 C 28.359375 21.75 28.007812 21.769531 27.625 21.769531 C 26.394531 21.769531 25.558594 21.453125 25.121094 20.824219 C 24.679688 20.195312 24.460938 19.375 24.460938 18.371094 L 24.460938 7.984375 L 22.335938 7.984375 L 22.335938 5.832031 L 24.460938 5.832031 Z M 31.933594 5.832031 L 34.539062 5.832031 L 34.539062 8.058594 C 35.164062 7.285156 35.734375 6.722656 36.242188 6.371094 C 37.109375 5.777344 38.09375 5.480469 39.199219 5.480469 C 40.449219 5.480469 41.453125 5.785156 42.21875 6.402344 C 42.648438 6.753906 43.039062 7.269531 43.390625 7.957031 C 43.976562 7.117188 44.664062 6.492188 45.453125 6.085938 C 46.246094 5.683594 47.132812 5.480469 48.121094 5.480469 C 50.230469 5.480469 51.664062 6.242188 52.425781 7.765625 C 52.835938 8.585938 53.042969 9.6875 53.042969 11.074219 L 53.042969 21.519531 L 50.304688 21.519531 L 50.304688 10.621094 C 50.304688 9.574219 50.042969 8.859375 49.519531 8.46875 C 48.996094 8.078125 48.359375 7.882812 47.609375 7.882812 C 46.574219 7.882812 45.679688 8.230469 44.933594 8.921875 C 44.1875 9.613281 43.8125 10.773438 43.8125 12.394531 L 43.8125 21.519531 L 41.132812 21.519531 L 41.132812 11.28125 C 41.132812 10.214844 41.007812 9.441406 40.75 8.949219 C 40.351562 8.21875 39.605469 7.851562 38.511719 7.851562 C 37.515625 7.851562 36.609375 8.238281 35.792969 9.011719 C 34.976562 9.78125 34.570312 11.175781 34.570312 13.199219 L 34.570312 21.519531 L 31.933594 21.519531 Z M 57.007812 0 L 59.644531 0 L 59.644531 21.519531 L 57.007812 21.519531 Z M 73.707031 16.171875 C 73.882812 17.675781 74.578125 18.714844 75.800781 19.292969 C 76.425781 19.585938 77.148438 19.730469 77.96875 19.730469 C 79.53125 19.730469 80.6875 19.234375 81.441406 18.238281 C 82.191406 17.242188 82.570312 16.136719 82.570312 14.925781 C 82.570312 13.460938 82.121094 12.332031 81.226562 11.527344 C 80.335938 10.726562 79.261719 10.328125 78.011719 10.328125 C 77.105469 10.328125 76.324219 10.503906 75.675781 10.855469 C 75.027344 11.207031 74.472656 11.695312 74.015625 12.320312 L 71.726562 12.1875 L 73.324219 0.894531 L 84.222656 0.894531 L 84.222656 3.441406 L 75.304688 3.441406 L 74.410156 9.273438 C 74.898438 8.902344 75.359375 8.625 75.800781 8.4375 C 76.582031 8.117188 77.484375 7.957031 78.511719 7.957031 C 80.433594 7.957031 82.066406 8.574219 83.402344 9.816406 C 84.742188 11.054688 85.410156 12.628906 85.410156 14.53125 C 85.410156 16.515625 84.796875 18.261719 83.570312 19.777344 C 82.34375 21.289062 80.390625 22.046875 77.703125 22.046875 C 75.996094 22.046875 74.484375 21.566406 73.171875 20.605469 C 71.859375 19.644531 71.125 18.164062 70.96875 16.171875 Z M 0 -1.582031 "/>
</g>
</svg>
