<?xml version="1.0" encoding="UTF-8"?>
<svg xmlns="http://www.w3.org/2000/svg" xmlns:xlink="http://www.w3.org/1999/xlink" width="73pt" height="24pt" viewBox="0 0 73 24" version="1.1">
<g id="surface21">
<path style=" stroke:none;fill-rule:nonzero;fill:rgb(0%,0%,0%);fill-opacity:1;" d="M 2.285156 0.0742188 L 5.726562 0.0742188 L 16.597656 17.507812 L 16.597656 0.0742188 L 19.367188 0.0742188 L 19.367188 21.59375 L 16.097656 21.59375 L 5.070312 4.175781 L 5.070312 21.59375 L 2.285156 21.59375 Z M 30.160156 19.894531 C 31.90625 19.894531 33.105469 19.234375 33.753906 17.910156 C 34.40625 16.585938 34.730469 15.113281 34.730469 13.492188 C 34.730469 12.027344 34.496094 10.835938 34.027344 9.917969 C 33.285156 8.472656 32.003906 7.75 30.1875 7.75 C 28.578125 7.75 27.40625 8.367188 26.671875 9.597656 C 25.941406 10.828125 25.574219 12.3125 25.574219 14.050781 C 25.574219 15.71875 25.941406 17.109375 26.671875 18.226562 C 27.40625 19.339844 28.566406 19.894531 30.160156 19.894531 Z M 30.261719 5.453125 C 32.28125 5.453125 33.992188 6.125 35.390625 7.472656 C 36.785156 8.820312 37.484375 10.804688 37.484375 13.421875 C 37.484375 15.949219 36.867188 18.039062 35.636719 19.6875 C 34.40625 21.339844 32.5 22.164062 29.910156 22.164062 C 27.75 22.164062 26.039062 21.433594 24.769531 19.976562 C 23.5 18.515625 22.863281 16.554688 22.863281 14.09375 C 22.863281 11.457031 23.53125 9.359375 24.871094 7.796875 C 26.210938 6.234375 28.007812 5.453125 30.261719 5.453125 Z M 42.601562 13.933594 C 42.601562 15.613281 42.960938 17.019531 43.671875 18.152344 C 44.386719 19.285156 45.527344 19.851562 47.101562 19.851562 C 48.320312 19.851562 49.324219 19.324219 50.109375 18.277344 C 50.898438 17.226562 51.289062 15.71875 51.289062 13.757812 C 51.289062 11.773438 50.882812 10.308594 50.074219 9.355469 C 49.265625 8.402344 48.261719 7.925781 47.070312 7.925781 C 45.742188 7.925781 44.667969 8.433594 43.839844 9.449219 C 43.015625 10.464844 42.601562 11.960938 42.601562 13.933594 Z M 46.574219 5.625 C 47.773438 5.625 48.78125 5.882812 49.589844 6.390625 C 50.058594 6.683594 50.59375 7.195312 51.1875 7.925781 L 51.1875 0 L 53.722656 0 L 53.722656 21.59375 L 51.347656 21.59375 L 51.347656 19.410156 C 50.734375 20.378906 50.007812 21.078125 49.164062 21.507812 C 48.324219 21.9375 47.363281 22.148438 46.28125 22.148438 C 44.53125 22.148438 43.019531 21.414062 41.738281 19.945312 C 40.460938 18.476562 39.820312 16.519531 39.820312 14.078125 C 39.820312 11.792969 40.402344 9.8125 41.570312 8.140625 C 42.738281 6.464844 44.40625 5.625 46.574219 5.625 Z M 64.46875 5.554688 C 65.582031 5.554688 66.660156 5.816406 67.703125 6.335938 C 68.75 6.859375 69.546875 7.535156 70.09375 8.367188 C 70.621094 9.15625 70.96875 10.078125 71.148438 11.132812 C 71.304688 11.855469 71.382812 13.007812 71.382812 14.59375 L 59.882812 14.59375 C 59.929688 16.183594 60.304688 17.460938 61.007812 18.421875 C 61.710938 19.382812 62.800781 19.867188 64.277344 19.867188 C 65.652344 19.867188 66.75 19.410156 67.570312 18.503906 C 68.039062 17.976562 68.375 17.367188 68.570312 16.671875 L 71.160156 16.671875 C 71.09375 17.25 70.867188 17.890625 70.480469 18.597656 C 70.09375 19.304688 69.664062 19.882812 69.183594 20.335938 C 68.382812 21.117188 67.390625 21.640625 66.210938 21.914062 C 65.574219 22.070312 64.859375 22.148438 64.054688 22.148438 C 62.101562 22.148438 60.449219 21.441406 59.089844 20.019531 C 57.734375 18.597656 57.054688 16.609375 57.054688 14.050781 C 57.054688 11.53125 57.738281 9.484375 59.105469 7.914062 C 60.472656 6.339844 62.257812 5.554688 64.46875 5.554688 Z M 68.671875 12.496094 C 68.5625 11.355469 68.3125 10.441406 67.921875 9.757812 C 67.199219 8.488281 65.996094 7.851562 64.304688 7.851562 C 63.09375 7.851562 62.078125 8.289062 61.257812 9.164062 C 60.4375 10.039062 60.003906 11.148438 59.953125 12.496094 Z M 0 -1.507812 "/>
</g>
</svg>
